<mxfile host="app.diagrams.net" modified="2024-05-16T07:56:46.487Z" agent="Mozilla/5.0 (Windows NT 10.0; Win64; x64) AppleWebKit/537.36 (KHTML, like Gecko) Chrome/124.0.0.0 Safari/537.36" version="24.0.2" etag="kLz2yubpL2erC4WpNR5M" type="github">
  <diagram name="Page-1" id="YPRMA6lDq0GKZgog6XVS">
    <mxGraphModel>
      <root>
        <mxCell id="0" />
        <mxCell id="1" parent="0" />
      </root>
    </mxGraphModel>
  </diagram>
</mxfile>
